<svg xmlns="http://www.w3.org/2000/svg" xmlns:xlink="http://www.w3.org/1999/xlink" width="500" zoomAndPan="magnify" viewBox="0 0 375 74.999997" height="100" preserveAspectRatio="xMidYMid meet" version="1.0"><defs><clipPath id="fb9e94371d"><path d="M 1 28 L 375 28 L 375 74.933594 L 1 74.933594 Z M 1 28 " clip-rule="nonzero"/></clipPath></defs><path fill="#4fc7f3" d="M 377.691406 28.660156 L 377.691406 59.488281 L 1.042969 59.488281 L 1.042969 28.007812 C 1.042969 28.007812 13.457031 33.90625 34.230469 19.515625 C 51.085938 7.832031 65.585938 11.726562 80.785156 24.707031 C 85.058594 28.363281 101.816406 32.125 112.425781 27.675781 C 116.71875 25.863281 123.035156 23.734375 129.171875 19.515625 C 146.027344 7.832031 160.78125 15.125 175.726562 24.707031 C 180.371094 27.675781 187.480469 29.5 195.273438 28.644531 C 200.6875 28.050781 207.5625 25.210938 215.835938 19.476562 C 232.691406 7.796875 247.195312 11.691406 262.394531 24.671875 C 266.664062 28.328125 283.425781 32.085938 294.027344 27.636719 C 298.320312 25.828125 304.644531 23.699219 310.777344 19.476562 C 327.636719 7.796875 342.382812 15.085938 357.335938 24.671875 C 362.148438 27.832031 369.535156 29.128906 377.691406 28.660156 Z M 377.691406 28.660156 " fill-opacity="1" fill-rule="nonzero"/><g clip-path="url(#fb9e94371d)"><path fill="#15aae2" d="M 377.691406 44.105469 L 377.691406 74.933594 L 1.042969 74.933594 L 1.042969 43.460938 C 1.042969 43.460938 13.457031 49.347656 34.230469 34.957031 C 51.085938 23.285156 65.585938 27.171875 80.785156 40.1875 C 85.058594 43.84375 101.816406 47.605469 112.425781 43.15625 C 116.71875 41.34375 123.035156 39.214844 129.171875 34.996094 C 146.027344 23.320312 160.78125 30.605469 175.726562 40.226562 C 180.371094 43.191406 187.480469 45.023438 195.273438 44.164062 C 200.6875 43.570312 207.5625 40.730469 215.835938 34.996094 C 232.691406 23.320312 247.195312 27.207031 262.394531 40.226562 C 266.664062 43.882812 283.425781 47.640625 294.027344 43.191406 C 298.320312 41.382812 304.644531 39.253906 310.777344 35.03125 C 327.636719 23.355469 342.382812 30.640625 357.335938 40.261719 C 362.148438 43.28125 369.535156 44.570312 377.691406 44.105469 Z M 377.691406 44.105469 " fill-opacity="1" fill-rule="nonzero"/></g><path fill="#4fc7f3" d="M 200.519531 17.15625 C 194.316406 10.886719 187.363281 10.398438 189.925781 5.554688 C 192.488281 0.710938 200.519531 10.066406 200.519531 17.15625 Z M 368.414062 23.609375 C 362.210938 17.339844 355.257812 16.851562 357.820312 12.007812 C 360.382812 7.164062 368.414062 16.519531 368.414062 23.609375 Z M 94.566406 4.5 C 92.21875 3.261719 88.28125 3.539062 88.296875 7.585938 C 88.296875 13.707031 94.566406 11.164062 99.378906 21.257812 C 100.132812 9.242188 95.910156 5.207031 94.566406 4.5 Z M 295.261719 4.582031 C 292.011719 3.203125 288.425781 6.378906 286.789062 8.515625 C 284.792969 11.132812 283.078125 14.648438 281.269531 20.863281 C 284.777344 17.238281 287.578125 16.117188 289.28125 14.789062 C 291.382812 13.144531 293.945312 11.5625 295.800781 9.640625 C 297.363281 8.023438 297.695312 5.613281 295.261719 4.582031 Z M 25.320312 11.007812 C 22.4375 9.789062 19.253906 12.625 17.765625 14.5 C 15.992188 16.824219 14.453125 19.953125 12.871094 25.464844 C 16.011719 22.265625 18.507812 21.25 19.996094 20.042969 C 21.859375 18.558594 24.132812 17.179688 25.78125 15.472656 C 27.179688 14.109375 27.484375 11.925781 25.320312 11.007812 Z M 25.320312 11.007812 " fill-opacity="1" fill-rule="nonzero"/></svg>