<svg xmlns="http://www.w3.org/2000/svg" xmlns:xlink="http://www.w3.org/1999/xlink" width="40" zoomAndPan="magnify" viewBox="0 0 30 30.000001" height="40" preserveAspectRatio="xMidYMid meet" version="1.0"><defs><clipPath id="393df772d6"><path d="M 0.484375 6 L 29.515625 6 L 29.515625 29.03125 L 0.484375 29.03125 Z M 0.484375 6 " clip-rule="nonzero"/></clipPath><clipPath id="2b3bc0bb25"><path d="M 0.484375 7 L 11 7 L 11 18 L 0.484375 18 Z M 0.484375 7 " clip-rule="nonzero"/></clipPath><clipPath id="a825f275ad"><path d="M 20 19 L 28 19 L 28 29.03125 L 20 29.03125 Z M 20 19 " clip-rule="nonzero"/></clipPath><clipPath id="a9468b9f71"><path d="M 24 15 L 29.515625 15 L 29.515625 20 L 24 20 Z M 24 15 " clip-rule="nonzero"/></clipPath><clipPath id="2ca34aeb3a"><path d="M 18 22 L 21 22 L 21 29.03125 L 18 29.03125 Z M 18 22 " clip-rule="nonzero"/></clipPath><clipPath id="8a190eb75d"><path d="M 19 3.0625 L 25 3.0625 L 25 9 L 19 9 Z M 19 3.0625 " clip-rule="nonzero"/></clipPath></defs><g clip-path="url(#393df772d6)"><path fill="#0cc0df" d="M 29.316406 16.589844 C 29.046875 15.835938 28.214844 15.65625 27.570312 15.902344 C 27.40625 15.960938 27.289062 16.078125 27.164062 16.179688 C 26.921875 15.722656 26.585938 15.390625 26.109375 15.21875 C 26.109375 15.21875 26.101562 15.21875 26.101562 15.21875 C 25.953125 14.519531 25.726562 13.832031 25.429688 13.179688 C 25.0625 12.34375 24.59375 11.578125 24.019531 10.875 C 23.382812 10.078125 22.640625 9.390625 21.796875 8.8125 C 20.839844 8.15625 19.796875 7.675781 18.671875 7.355469 C 17.902344 7.140625 17.125 7.015625 16.328125 6.972656 C 15.824219 6.941406 15.308594 6.949219 14.800781 7.015625 C 14.167969 7.097656 13.546875 7.207031 12.929688 7.394531 C 12.261719 7.59375 11.613281 7.851562 10.996094 8.183594 C 10.238281 8.582031 9.542969 9.078125 8.917969 9.671875 C 8.808594 9.773438 8.675781 9.863281 8.59375 9.996094 C 8.585938 9.996094 8.585938 9.996094 8.578125 9.996094 C 8.5 9.996094 8.417969 9.996094 8.324219 10.011719 C 7.984375 10.046875 7.644531 10.082031 7.300781 10.082031 C 7.140625 10.082031 6.992188 10.023438 6.867188 9.90625 C 6.542969 9.601562 6.292969 9.242188 6.039062 8.894531 C 5.757812 8.515625 5.488281 8.132812 5.125 7.820312 C 4.804688 7.542969 4.546875 7.621094 4.339844 7.933594 C 4.3125 7.976562 4.296875 8.027344 4.273438 8.082031 C 4.195312 8.300781 4.15625 8.53125 4.097656 8.761719 C 3.957031 9.292969 3.898438 9.847656 3.753906 10.378906 C 3.679688 10.644531 3.570312 10.867188 3.277344 10.957031 C 3.15625 10.984375 3.03125 11.039062 2.914062 11.074219 C 2.363281 11.25 1.820312 11.429688 1.292969 11.664062 C 1.035156 11.777344 0.800781 11.929688 0.617188 12.152344 C 0.492188 12.300781 0.484375 12.457031 0.59375 12.617188 C 0.675781 12.746094 0.785156 12.832031 0.902344 12.929688 C 1.1875 13.160156 1.527344 13.3125 1.84375 13.507812 C 2.269531 13.757812 2.671875 14.03125 3.089844 14.289062 C 3.253906 14.386719 3.320312 14.527344 3.3125 14.710938 C 3.304688 14.976562 3.339844 15.242188 3.363281 15.5 C 3.386719 15.804688 3.414062 16.109375 3.4375 16.410156 C 3.460938 16.722656 3.460938 17.03125 3.472656 17.34375 C 3.480469 17.429688 3.496094 17.519531 3.519531 17.601562 C 3.546875 17.734375 3.644531 17.800781 3.78125 17.800781 C 3.863281 17.800781 3.929688 17.777344 3.996094 17.742188 C 4.214844 17.617188 4.429688 17.480469 4.613281 17.320312 C 4.875 17.082031 5.140625 16.847656 5.40625 16.609375 C 5.488281 16.535156 5.566406 16.46875 5.675781 16.441406 C 5.691406 16.402344 5.691406 16.417969 5.675781 16.453125 C 5.675781 16.601562 5.671875 16.742188 5.664062 16.882812 C 5.640625 17.386719 5.691406 17.894531 5.75 18.398438 C 5.796875 18.789062 5.867188 19.175781 5.964844 19.550781 C 6.082031 20.011719 6.230469 20.453125 6.40625 20.898438 C 6.625 21.453125 6.890625 21.976562 7.199219 22.484375 C 7.523438 23.027344 7.890625 23.527344 8.316406 23.992188 C 8.585938 24.289062 8.867188 24.578125 9.167969 24.851562 C 9.578125 25.222656 10.019531 25.546875 10.480469 25.847656 C 11.09375 26.253906 11.753906 26.582031 12.4375 26.839844 C 13.074219 27.074219 13.730469 27.253906 14.398438 27.371094 C 14.808594 27.445312 15.21875 27.46875 15.640625 27.503906 C 16.257812 27.554688 16.875 27.511719 17.492188 27.429688 C 17.953125 27.363281 18.863281 27.164062 18.878906 27.15625 C 18.886719 27.15625 18.914062 27.148438 18.914062 27.148438 C 18.921875 27.203125 18.929688 27.253906 18.929688 27.269531 C 18.945312 27.816406 19.011719 28.363281 19.003906 28.910156 C 19.003906 29.070312 19.105469 29.175781 19.269531 29.167969 C 19.621094 29.160156 19.980469 29.152344 20.332031 29.144531 C 20.429688 29.144531 20.515625 29.136719 20.613281 29.117188 C 20.789062 29.070312 20.855469 28.996094 20.863281 28.8125 C 20.871094 28.703125 20.871094 28.597656 20.871094 28.488281 C 20.871094 28.488281 20.941406 28.511719 20.972656 28.523438 C 21.554688 28.8125 22.183594 28.9375 22.816406 28.996094 C 23.359375 29.050781 23.902344 29.058594 24.445312 28.976562 C 24.792969 28.925781 25.152344 28.886719 25.492188 28.777344 C 25.660156 28.722656 25.804688 28.628906 25.894531 28.464844 C 26.0625 28.148438 26.128906 27.808594 26.003906 27.453125 C 25.976562 27.371094 25.929688 27.34375 25.859375 27.363281 C 25.738281 27.402344 25.609375 27.386719 25.484375 27.421875 C 25.4375 27.4375 25.367188 27.46875 25.34375 27.402344 C 25.320312 27.335938 25.394531 27.320312 25.4375 27.289062 C 25.476562 27.269531 25.511719 27.261719 25.554688 27.261719 C 25.738281 27.261719 25.917969 27.203125 26.101562 27.203125 C 26.363281 27.195312 26.46875 27.023438 26.546875 26.808594 C 26.660156 26.5 26.585938 26.210938 26.476562 25.921875 C 26.453125 25.863281 26.410156 25.835938 26.351562 25.839844 C 26.3125 25.847656 26.269531 25.847656 26.230469 25.847656 C 26.035156 25.847656 25.828125 25.855469 25.628906 25.886719 C 25.59375 25.894531 25.535156 25.902344 25.535156 25.839844 C 25.535156 25.789062 25.578125 25.773438 25.617188 25.769531 C 25.644531 25.761719 25.667969 25.761719 25.695312 25.761719 C 25.921875 25.761719 26.152344 25.746094 26.378906 25.722656 C 26.679688 25.703125 26.878906 25.5 26.902344 25.199219 C 26.914062 24.960938 26.863281 24.746094 26.746094 24.539062 C 26.703125 24.453125 26.644531 24.414062 26.539062 24.421875 C 26.230469 24.453125 25.917969 24.472656 25.601562 24.496094 C 25.527344 24.503906 25.453125 24.503906 25.378906 24.503906 C 25.34375 24.503906 25.3125 24.480469 25.3125 24.445312 C 25.3125 24.421875 25.335938 24.394531 25.367188 24.394531 C 25.4375 24.378906 25.511719 24.378906 25.585938 24.371094 C 25.886719 24.347656 26.179688 24.332031 26.476562 24.3125 C 26.628906 24.296875 26.761719 24.246094 26.871094 24.113281 C 27.136719 23.78125 27.128906 23.425781 26.980469 23.0625 C 26.886719 22.832031 26.703125 22.691406 26.421875 22.714844 C 26.167969 22.730469 25.917969 22.765625 25.660156 22.765625 C 25.359375 22.773438 25.0625 22.832031 24.769531 22.8125 C 24.769531 22.8125 24.769531 22.8125 24.761719 22.8125 C 24.875 22.613281 24.992188 22.417969 25.101562 22.21875 C 25.417969 21.652344 25.667969 21.058594 25.863281 20.4375 C 25.988281 20.046875 26.09375 19.648438 26.167969 19.242188 C 26.246094 19.292969 26.296875 19.367188 26.371094 19.457031 C 26.503906 19.582031 26.496094 19.582031 26.628906 19.46875 C 26.6875 19.410156 26.753906 19.367188 26.820312 19.324219 C 27.253906 19.050781 27.714844 18.835938 28.15625 18.578125 C 28.449219 18.398438 28.753906 18.242188 29.007812 18.007812 C 29.457031 17.601562 29.515625 17.128906 29.316406 16.589844 Z M 21.066406 16.699219 Z M 17.4375 19.90625 C 17.429688 19.90625 17.425781 19.914062 17.417969 19.914062 C 17.425781 19.90625 17.429688 19.90625 17.4375 19.90625 Z M 10.371094 16.433594 Z M 10.371094 16.433594 " fill-opacity="1" fill-rule="nonzero"/></g><path fill="#0cc0df" d="M 26.167969 19.25 C 26.09375 19.65625 25.988281 20.054688 25.863281 20.445312 C 25.667969 21.066406 25.417969 21.660156 25.101562 22.226562 C 24.992188 22.425781 24.875 22.625 24.761719 22.824219 C 24.652344 22.886719 24.535156 22.839844 24.425781 22.863281 C 24.191406 22.921875 23.953125 22.886719 23.71875 22.894531 C 23.625 22.894531 23.582031 22.839844 23.625 22.765625 C 23.683594 22.648438 23.691406 22.523438 23.71875 22.398438 C 23.832031 21.894531 23.859375 21.386719 23.777344 20.875 C 23.699219 20.335938 23.417969 19.914062 22.964844 19.632812 C 22.589844 19.402344 22.242188 19.574219 22.050781 19.929688 C 21.921875 20.179688 21.855469 20.476562 21.839844 20.765625 C 21.824219 21.066406 21.800781 21.371094 21.75 21.664062 C 21.691406 22.027344 21.640625 22.398438 21.464844 22.730469 C 21.316406 23.011719 21.089844 23.167969 20.773438 23.179688 C 20.65625 23.1875 20.546875 23.179688 20.429688 23.179688 C 20.390625 23.039062 20.289062 22.988281 20.15625 22.980469 C 19.828125 22.960938 19.496094 22.980469 19.164062 22.988281 C 19.070312 22.988281 18.96875 23.019531 18.871094 23.0625 C 18.730469 23.128906 18.671875 23.234375 18.679688 23.386719 C 18.71875 23.957031 18.769531 24.519531 18.789062 25.085938 C 18.804688 25.441406 18.855469 25.789062 18.84375 26.144531 C 18.84375 26.183594 18.847656 26.210938 18.847656 26.25 C 18.894531 26.550781 18.871094 26.855469 18.894531 27.15625 C 18.429688 27.253906 17.960938 27.363281 17.492188 27.429688 C 16.875 27.511719 16.257812 27.554688 15.640625 27.503906 C 15.21875 27.46875 14.808594 27.445312 14.398438 27.371094 C 13.730469 27.253906 13.074219 27.074219 12.4375 26.839844 C 11.753906 26.582031 11.09375 26.253906 10.480469 25.847656 C 10.019531 25.546875 9.578125 25.222656 9.167969 24.851562 C 8.867188 24.578125 8.585938 24.289062 8.316406 23.992188 C 7.890625 23.527344 7.523438 23.027344 7.199219 22.484375 C 6.890625 21.976562 6.625 21.453125 6.40625 20.898438 C 6.230469 20.453125 6.082031 20.011719 5.964844 19.550781 C 5.867188 19.175781 5.796875 18.789062 5.75 18.398438 C 5.691406 17.894531 5.640625 17.386719 5.664062 16.882812 C 5.671875 16.742188 5.675781 16.601562 5.675781 16.453125 C 5.691406 16.417969 5.699219 16.382812 5.738281 16.351562 C 5.90625 16.210938 6.074219 16.0625 6.265625 15.945312 C 6.359375 15.886719 6.457031 15.886719 6.558594 15.90625 C 6.726562 15.945312 6.898438 15.980469 7.066406 16.027344 C 7.707031 16.1875 8.335938 16.367188 8.976562 16.515625 C 9.152344 16.550781 9.320312 16.566406 9.496094 16.550781 C 9.644531 16.542969 9.769531 16.476562 9.804688 16.335938 C 9.835938 16.21875 9.863281 16.085938 9.851562 15.960938 C 9.820312 15.746094 9.753906 15.539062 9.675781 15.339844 C 9.503906 14.953125 9.308594 14.578125 9.152344 14.179688 C 9.011719 13.832031 8.875 13.476562 8.761719 13.113281 C 8.734375 13.019531 8.726562 12.929688 8.785156 12.839844 C 8.925781 12.617188 9.058594 12.390625 9.195312 12.175781 C 9.425781 11.828125 9.660156 11.480469 9.886719 11.132812 C 10.011719 10.933594 10.136719 10.734375 10.226562 10.511719 C 10.351562 10.203125 10.210938 9.988281 9.886719 9.964844 C 9.859375 9.964844 9.835938 9.964844 9.804688 9.964844 C 9.394531 9.957031 8.984375 9.957031 8.578125 10.011719 C 8.667969 9.871094 8.800781 9.78125 8.917969 9.671875 C 9.542969 9.078125 10.238281 8.582031 10.996094 8.183594 C 11.613281 7.851562 12.261719 7.59375 12.929688 7.394531 C 13.546875 7.207031 14.167969 7.097656 14.800781 7.015625 C 15.308594 6.949219 15.824219 6.941406 16.328125 6.972656 C 17.125 7.015625 17.902344 7.140625 18.671875 7.355469 C 19.796875 7.675781 20.839844 8.15625 21.796875 8.8125 C 22.640625 9.390625 23.382812 10.078125 24.019531 10.875 C 24.59375 11.578125 25.0625 12.34375 25.429688 13.179688 C 25.726562 13.839844 25.953125 14.527344 26.101562 15.234375 C 25.929688 15.234375 25.769531 15.199219 25.601562 15.226562 C 24.84375 15.339844 24.328125 16.027344 24.476562 16.816406 C 24.535156 17.121094 24.660156 17.378906 24.828125 17.621094 C 25.050781 17.949219 25.320312 18.230469 25.570312 18.523438 C 25.777344 18.746094 25.996094 18.976562 26.167969 19.25 Z M 15.984375 21.015625 C 16.535156 21.023438 17.09375 20.917969 17.644531 20.726562 C 18.101562 20.570312 18.519531 20.351562 18.914062 20.085938 C 19.328125 19.804688 19.6875 19.457031 20.003906 19.070312 C 20.414062 18.570312 20.691406 18 20.898438 17.386719 C 20.972656 17.164062 21.023438 16.929688 21.066406 16.699219 C 21.082031 16.617188 21.066406 16.566406 20.972656 16.535156 C 20.8125 16.5 20.640625 16.5 20.472656 16.476562 C 20.386719 16.460938 20.347656 16.507812 20.324219 16.59375 C 20.246094 16.90625 20.15625 17.222656 20.03125 17.519531 C 19.671875 18.339844 19.121094 18.988281 18.363281 19.46875 C 17.976562 19.714844 17.554688 19.882812 17.109375 20.003906 C 16.632812 20.128906 16.132812 20.136719 15.644531 20.105469 C 15.160156 20.078125 14.683594 19.9375 14.230469 19.742188 C 13.507812 19.441406 12.890625 19.003906 12.378906 18.429688 C 11.972656 17.976562 11.644531 17.46875 11.421875 16.890625 C 11.355469 16.726562 11.289062 16.566406 11.246094 16.394531 C 11.230469 16.328125 11.210938 16.253906 11.121094 16.261719 C 10.894531 16.277344 10.664062 16.292969 10.445312 16.335938 C 10.371094 16.351562 10.363281 16.394531 10.371094 16.453125 C 10.394531 16.574219 10.414062 16.699219 10.445312 16.808594 C 10.652344 17.488281 10.945312 18.125 11.378906 18.703125 C 12.121094 19.683594 13.0625 20.386719 14.242188 20.757812 C 14.808594 20.933594 15.367188 21.03125 15.984375 21.015625 Z M 14.046875 13.734375 C 13.675781 13.71875 13.382812 13.816406 13.121094 14.039062 C 12.582031 14.496094 12.5625 15.332031 13.125 15.761719 C 13.707031 16.203125 14.515625 16.046875 14.925781 15.480469 C 15.21875 15.066406 15.21875 14.578125 14.925781 14.1875 C 14.699219 13.875 14.398438 13.707031 14.046875 13.734375 Z M 18.410156 14.800781 C 18.46875 14.761719 18.480469 14.742188 18.511719 14.726562 C 18.820312 14.578125 19.128906 14.4375 19.445312 14.296875 C 19.578125 14.238281 19.589844 14.222656 19.578125 14.058594 C 19.570312 14.023438 19.570312 13.980469 19.554688 13.941406 C 19.519531 13.785156 19.4375 13.640625 19.445312 13.46875 C 19.445312 13.410156 19.40625 13.386719 19.355469 13.378906 C 19.304688 13.371094 19.253906 13.386719 19.203125 13.410156 C 19.003906 13.492188 18.804688 13.574219 18.613281 13.660156 C 18.128906 13.882812 17.652344 14.140625 17.167969 14.371094 C 16.953125 14.472656 16.875 14.601562 16.894531 14.835938 C 16.917969 15.058594 16.902344 15.058594 17.101562 15.148438 C 17.125 15.152344 17.136719 15.160156 17.160156 15.167969 C 17.511719 15.300781 17.859375 15.441406 18.210938 15.574219 C 18.578125 15.714844 18.945312 15.871094 19.328125 15.953125 C 19.453125 15.980469 19.453125 15.980469 19.480469 15.847656 C 19.523438 15.65625 19.523438 15.457031 19.546875 15.265625 C 19.554688 15.183594 19.53125 15.140625 19.453125 15.117188 C 19.3125 15.082031 19.171875 15.035156 19.027344 14.992188 C 18.828125 14.933594 18.636719 14.875 18.410156 14.800781 Z M 18.410156 14.800781 " fill-opacity="1" fill-rule="nonzero"/><g clip-path="url(#2b3bc0bb25)"><path fill="#ff5757" d="M 8.578125 9.996094 C 8.992188 9.945312 9.394531 9.945312 9.804688 9.949219 C 9.835938 9.949219 9.859375 9.949219 9.886719 9.949219 C 10.21875 9.972656 10.351562 10.1875 10.226562 10.496094 C 10.136719 10.71875 10.011719 10.917969 9.886719 11.117188 C 9.660156 11.464844 9.425781 11.8125 9.195312 12.160156 C 9.058594 12.382812 8.917969 12.605469 8.785156 12.824219 C 8.734375 12.914062 8.734375 13.003906 8.761719 13.097656 C 8.875 13.460938 9.011719 13.808594 9.152344 14.164062 C 9.308594 14.554688 9.503906 14.933594 9.675781 15.324219 C 9.761719 15.515625 9.820312 15.730469 9.851562 15.945312 C 9.863281 16.078125 9.84375 16.203125 9.804688 16.320312 C 9.769531 16.46875 9.636719 16.527344 9.496094 16.535156 C 9.320312 16.542969 9.152344 16.535156 8.976562 16.5 C 8.335938 16.351562 7.707031 16.179688 7.066406 16.011719 C 6.898438 15.96875 6.726562 15.929688 6.558594 15.894531 C 6.457031 15.871094 6.359375 15.871094 6.265625 15.929688 C 6.074219 16.046875 5.90625 16.1875 5.738281 16.335938 C 5.699219 16.367188 5.691406 16.402344 5.675781 16.441406 C 5.566406 16.46875 5.488281 16.535156 5.40625 16.609375 C 5.140625 16.847656 4.875 17.082031 4.613281 17.320312 C 4.429688 17.480469 4.214844 17.617188 3.996094 17.742188 C 3.929688 17.777344 3.863281 17.800781 3.78125 17.800781 C 3.644531 17.800781 3.546875 17.734375 3.519531 17.601562 C 3.496094 17.519531 3.480469 17.429688 3.472656 17.34375 C 3.460938 17.03125 3.460938 16.722656 3.4375 16.410156 C 3.414062 16.109375 3.386719 15.804688 3.363281 15.5 C 3.339844 15.242188 3.304688 14.976562 3.3125 14.710938 C 3.320312 14.527344 3.253906 14.386719 3.089844 14.289062 C 2.671875 14.03125 2.269531 13.757812 1.84375 13.507812 C 1.527344 13.3125 1.1875 13.160156 0.902344 12.929688 C 0.785156 12.832031 0.675781 12.746094 0.59375 12.617188 C 0.484375 12.457031 0.492188 12.300781 0.617188 12.152344 C 0.800781 11.929688 1.035156 11.777344 1.292969 11.664062 C 1.820312 11.429688 2.363281 11.25 2.914062 11.074219 C 3.03125 11.039062 3.15625 10.984375 3.277344 10.957031 C 3.570312 10.867188 3.679688 10.644531 3.753906 10.378906 C 3.898438 9.847656 3.957031 9.292969 4.097656 8.761719 C 4.15625 8.53125 4.195312 8.300781 4.273438 8.082031 C 4.296875 8.027344 4.3125 7.976562 4.339844 7.933594 C 4.546875 7.621094 4.804688 7.542969 5.125 7.820312 C 5.488281 8.132812 5.757812 8.515625 6.039062 8.894531 C 6.292969 9.242188 6.542969 9.601562 6.867188 9.90625 C 6.992188 10.023438 7.140625 10.082031 7.300781 10.082031 C 7.644531 10.082031 7.984375 10.046875 8.324219 10.011719 C 8.417969 9.996094 8.5 9.996094 8.578125 9.996094 Z M 8.578125 9.996094 " fill-opacity="1" fill-rule="nonzero"/></g><g clip-path="url(#a825f275ad)"><path fill="#fcc32d" d="M 20.4375 23.171875 C 20.554688 23.171875 20.664062 23.179688 20.78125 23.171875 C 21.097656 23.160156 21.324219 23.003906 21.472656 22.722656 C 21.648438 22.390625 21.699219 22.019531 21.757812 21.660156 C 21.808594 21.355469 21.832031 21.058594 21.847656 20.757812 C 21.855469 20.46875 21.921875 20.171875 22.058594 19.921875 C 22.242188 19.566406 22.597656 19.398438 22.96875 19.625 C 23.425781 19.90625 23.699219 20.328125 23.785156 20.867188 C 23.867188 21.378906 23.84375 21.886719 23.726562 22.390625 C 23.699219 22.515625 23.691406 22.640625 23.632812 22.757812 C 23.59375 22.832031 23.640625 22.886719 23.726562 22.886719 C 23.960938 22.878906 24.199219 22.914062 24.433594 22.855469 C 24.542969 22.824219 24.660156 22.878906 24.769531 22.820312 C 25.0625 22.839844 25.359375 22.78125 25.660156 22.773438 C 25.917969 22.773438 26.167969 22.738281 26.421875 22.722656 C 26.703125 22.699219 26.886719 22.839844 26.980469 23.070312 C 27.128906 23.433594 27.136719 23.785156 26.871094 24.121094 C 26.761719 24.253906 26.628906 24.304688 26.476562 24.320312 C 26.179688 24.339844 25.886719 24.355469 25.585938 24.378906 C 25.511719 24.386719 25.4375 24.386719 25.367188 24.402344 C 25.335938 24.402344 25.3125 24.429688 25.3125 24.453125 C 25.3125 24.488281 25.34375 24.511719 25.378906 24.511719 C 25.453125 24.511719 25.527344 24.511719 25.601562 24.503906 C 25.917969 24.480469 26.230469 24.460938 26.539062 24.429688 C 26.644531 24.421875 26.703125 24.460938 26.746094 24.546875 C 26.863281 24.753906 26.914062 24.96875 26.902344 25.207031 C 26.878906 25.507812 26.679688 25.707031 26.378906 25.730469 C 26.152344 25.753906 25.921875 25.769531 25.695312 25.769531 C 25.667969 25.769531 25.644531 25.769531 25.617188 25.773438 C 25.578125 25.78125 25.535156 25.796875 25.535156 25.847656 C 25.535156 25.910156 25.59375 25.902344 25.628906 25.894531 C 25.828125 25.863281 26.035156 25.855469 26.230469 25.855469 C 26.269531 25.855469 26.3125 25.855469 26.351562 25.847656 C 26.410156 25.839844 26.453125 25.871094 26.476562 25.929688 C 26.585938 26.21875 26.660156 26.507812 26.546875 26.816406 C 26.46875 27.03125 26.363281 27.203125 26.101562 27.210938 C 25.917969 27.210938 25.738281 27.269531 25.554688 27.269531 C 25.511719 27.269531 25.476562 27.277344 25.4375 27.296875 C 25.394531 27.328125 25.320312 27.34375 25.34375 27.410156 C 25.367188 27.476562 25.4375 27.445312 25.484375 27.429688 C 25.609375 27.394531 25.738281 27.410156 25.859375 27.371094 C 25.929688 27.347656 25.976562 27.378906 26.003906 27.460938 C 26.128906 27.816406 26.0625 28.15625 25.894531 28.472656 C 25.804688 28.636719 25.660156 28.730469 25.492188 28.785156 C 25.152344 28.894531 24.792969 28.929688 24.445312 28.984375 C 23.902344 29.0625 23.359375 29.058594 22.816406 29.003906 C 22.183594 28.945312 21.554688 28.820312 20.972656 28.53125 C 20.941406 28.515625 20.914062 28.503906 20.878906 28.496094 C 20.832031 28.164062 20.78125 27.828125 20.753906 27.488281 C 20.691406 26.816406 20.640625 26.144531 20.589844 25.472656 C 20.554688 25.015625 20.488281 24.5625 20.457031 24.105469 C 20.421875 23.785156 20.421875 23.484375 20.4375 23.171875 Z M 20.4375 23.171875 " fill-opacity="1" fill-rule="nonzero"/></g><g clip-path="url(#a9468b9f71)"><path fill="#5271ff" d="M 26.167969 19.25 C 25.996094 18.984375 25.785156 18.746094 25.578125 18.507812 C 25.328125 18.214844 25.058594 17.933594 24.835938 17.609375 C 24.667969 17.363281 24.542969 17.097656 24.484375 16.800781 C 24.335938 16.011719 24.84375 15.324219 25.609375 15.214844 C 25.777344 15.191406 25.945312 15.21875 26.109375 15.21875 C 26.585938 15.390625 26.921875 15.722656 27.164062 16.179688 C 27.289062 16.078125 27.40625 15.960938 27.570312 15.902344 C 28.214844 15.65625 29.046875 15.835938 29.316406 16.589844 C 29.515625 17.128906 29.457031 17.601562 29.007812 18.015625 C 28.753906 18.25 28.449219 18.40625 28.15625 18.582031 C 27.714844 18.84375 27.253906 19.058594 26.820312 19.332031 C 26.753906 19.375 26.6875 19.417969 26.628906 19.476562 C 26.496094 19.589844 26.503906 19.589844 26.371094 19.464844 C 26.296875 19.375 26.246094 19.300781 26.167969 19.25 Z M 26.167969 19.25 " fill-opacity="1" fill-rule="nonzero"/></g><g clip-path="url(#2ca34aeb3a)"><path fill="#5271ff" d="M 20.4375 23.171875 C 20.421875 23.484375 20.429688 23.792969 20.449219 24.105469 C 20.488281 24.5625 20.546875 25.019531 20.582031 25.472656 C 20.640625 26.144531 20.6875 26.816406 20.746094 27.488281 C 20.773438 27.824219 20.824219 28.15625 20.871094 28.496094 C 20.871094 28.605469 20.871094 28.710938 20.863281 28.820312 C 20.855469 29.003906 20.789062 29.078125 20.613281 29.125 C 20.515625 29.144531 20.429688 29.152344 20.332031 29.152344 C 19.980469 29.160156 19.621094 29.167969 19.269531 29.175781 C 19.105469 29.183594 19.003906 29.078125 19.003906 28.917969 C 19.011719 28.371094 18.945312 27.824219 18.929688 27.277344 C 18.929688 27.230469 18.914062 27.179688 18.90625 27.136719 C 18.886719 26.832031 18.90625 26.527344 18.863281 26.226562 C 18.855469 26.1875 18.847656 26.160156 18.855469 26.121094 C 18.871094 25.769531 18.820312 25.421875 18.804688 25.066406 C 18.785156 24.496094 18.730469 23.933594 18.695312 23.367188 C 18.6875 23.210938 18.746094 23.105469 18.886719 23.039062 C 18.980469 22.996094 19.078125 22.964844 19.179688 22.964844 C 19.511719 22.960938 19.839844 22.9375 20.171875 22.960938 C 20.296875 22.980469 20.398438 23.027344 20.4375 23.171875 Z M 20.4375 23.171875 " fill-opacity="1" fill-rule="nonzero"/></g><path fill="#fcc32d" d="M 7.917969 25.058594 C 7.910156 25.125 7.851562 25.140625 7.800781 25.148438 C 7.59375 25.15625 7.402344 25.222656 7.214844 25.28125 C 6.714844 25.441406 6.316406 25.753906 6 26.175781 C 5.765625 26.484375 5.574219 26.808594 5.449219 27.179688 C 5.390625 27.347656 5.332031 27.527344 5.332031 27.710938 C 5.332031 27.761719 5.324219 27.816406 5.273438 27.828125 C 5.207031 27.851562 5.183594 27.792969 5.164062 27.742188 C 5.007812 27.394531 4.890625 27.039062 4.714844 26.699219 C 4.414062 26.109375 3.988281 25.65625 3.414062 25.332031 C 3.121094 25.167969 2.804688 25.050781 2.488281 24.941406 C 2.402344 24.910156 2.378906 24.867188 2.386719 24.777344 C 2.394531 24.679688 2.46875 24.679688 2.535156 24.675781 C 3.152344 24.621094 3.703125 24.40625 4.164062 23.972656 C 4.390625 23.757812 4.628906 23.542969 4.832031 23.300781 C 5.082031 22.996094 5.183594 22.632812 5.265625 22.265625 C 5.273438 22.242188 5.265625 22.226562 5.273438 22.207031 C 5.28125 22.175781 5.296875 22.152344 5.316406 22.144531 C 5.355469 22.140625 5.375 22.167969 5.382812 22.207031 C 5.398438 22.25 5.414062 22.292969 5.421875 22.339844 C 5.554688 22.914062 5.800781 23.433594 6.191406 23.875 C 6.582031 24.328125 7.058594 24.652344 7.609375 24.882812 C 7.691406 24.917969 7.769531 24.949219 7.851562 24.976562 C 7.890625 25.007812 7.917969 25.015625 7.917969 25.058594 Z M 7.917969 25.058594 " fill-opacity="1" fill-rule="nonzero"/><g clip-path="url(#8a190eb75d)"><path fill="#ff5757" d="M 24.984375 5.761719 C 24.976562 5.820312 24.933594 5.832031 24.875 5.847656 C 24.726562 5.886719 24.570312 5.90625 24.425781 5.96875 C 23.941406 6.152344 23.550781 6.453125 23.214844 6.847656 C 22.957031 7.148438 22.78125 7.496094 22.632812 7.859375 C 22.597656 7.949219 22.582031 8.035156 22.550781 8.132812 C 22.539062 8.183594 22.523438 8.25 22.457031 8.25 C 22.390625 8.25 22.375 8.183594 22.359375 8.140625 C 22.308594 7.917969 22.230469 7.710938 22.148438 7.503906 C 21.941406 6.980469 21.625 6.527344 21.179688 6.1875 C 20.90625 5.980469 20.589844 5.832031 20.253906 5.753906 C 20.164062 5.730469 20.0625 5.746094 19.972656 5.738281 C 19.921875 5.738281 19.855469 5.753906 19.847656 5.671875 C 19.847656 5.605469 19.90625 5.582031 19.957031 5.574219 C 20.128906 5.546875 20.28125 5.480469 20.4375 5.421875 C 20.988281 5.199219 21.507812 4.910156 21.90625 4.453125 C 22.140625 4.179688 22.308594 3.867188 22.390625 3.511719 C 22.417969 3.378906 22.472656 3.253906 22.515625 3.128906 C 22.523438 3.097656 22.550781 3.070312 22.589844 3.078125 C 22.609375 3.085938 22.617188 3.097656 22.625 3.121094 C 22.675781 3.585938 22.925781 3.964844 23.167969 4.347656 C 23.300781 4.554688 23.425781 4.753906 23.59375 4.933594 C 23.890625 5.21875 24.234375 5.421875 24.617188 5.554688 C 24.71875 5.589844 24.820312 5.621094 24.902344 5.695312 C 24.945312 5.695312 24.984375 5.707031 24.984375 5.761719 Z M 24.984375 5.761719 " fill-opacity="1" fill-rule="nonzero"/></g><path fill="#010202" d="M 15.984375 21.015625 C 15.367188 21.03125 14.800781 20.925781 14.242188 20.757812 C 13.0625 20.386719 12.128906 19.683594 11.378906 18.703125 C 10.945312 18.132812 10.652344 17.496094 10.445312 16.808594 C 10.410156 16.691406 10.394531 16.574219 10.371094 16.453125 C 10.363281 16.394531 10.371094 16.351562 10.445312 16.335938 C 10.664062 16.292969 10.894531 16.277344 11.121094 16.261719 C 11.210938 16.253906 11.230469 16.328125 11.246094 16.394531 C 11.289062 16.566406 11.355469 16.726562 11.421875 16.890625 C 11.644531 17.46875 11.972656 17.976562 12.378906 18.429688 C 12.890625 19.003906 13.515625 19.441406 14.230469 19.742188 C 14.683594 19.9375 15.160156 20.078125 15.644531 20.105469 C 16.132812 20.136719 16.625 20.128906 17.109375 20.003906 C 17.550781 19.882812 17.976562 19.722656 18.363281 19.46875 C 19.121094 18.988281 19.671875 18.339844 20.03125 17.519531 C 20.164062 17.222656 20.246094 16.90625 20.324219 16.59375 C 20.347656 16.507812 20.390625 16.460938 20.472656 16.476562 C 20.632812 16.507812 20.804688 16.5 20.972656 16.535156 C 21.074219 16.558594 21.089844 16.609375 21.066406 16.699219 C 21.023438 16.929688 20.980469 17.164062 20.898438 17.386719 C 20.691406 18 20.40625 18.570312 20.003906 19.070312 C 19.6875 19.457031 19.335938 19.804688 18.914062 20.085938 C 18.519531 20.359375 18.101562 20.570312 17.644531 20.726562 C 17.101562 20.917969 16.535156 21.03125 15.984375 21.015625 Z M 15.984375 21.015625 " fill-opacity="1" fill-rule="nonzero"/><path fill="#010202" d="M 14.046875 13.734375 C 14.40625 13.714844 14.707031 13.882812 14.933594 14.1875 C 15.226562 14.578125 15.226562 15.066406 14.933594 15.480469 C 14.523438 16.046875 13.714844 16.203125 13.132812 15.761719 C 12.570312 15.332031 12.589844 14.496094 13.125 14.039062 C 13.375 13.808594 13.675781 13.714844 14.046875 13.734375 Z M 14.046875 13.734375 " fill-opacity="1" fill-rule="nonzero"/><path fill="#010202" d="M 18.410156 14.800781 C 18.636719 14.875 18.828125 14.933594 19.019531 14.992188 C 19.15625 15.035156 19.296875 15.082031 19.445312 15.117188 C 19.523438 15.140625 19.546875 15.183594 19.539062 15.265625 C 19.519531 15.457031 19.519531 15.65625 19.472656 15.847656 C 19.445312 15.980469 19.445312 15.972656 19.320312 15.953125 C 18.929688 15.871094 18.570312 15.707031 18.203125 15.574219 C 17.851562 15.441406 17.503906 15.300781 17.152344 15.167969 C 17.128906 15.160156 17.117188 15.160156 17.09375 15.148438 C 16.886719 15.066406 16.910156 15.058594 16.886719 14.835938 C 16.867188 14.601562 16.9375 14.472656 17.160156 14.371094 C 17.644531 14.140625 18.113281 13.890625 18.605469 13.660156 C 18.804688 13.574219 18.996094 13.484375 19.195312 13.410156 C 19.246094 13.386719 19.296875 13.378906 19.347656 13.378906 C 19.398438 13.386719 19.4375 13.410156 19.4375 13.46875 C 19.4375 13.640625 19.511719 13.78125 19.546875 13.941406 C 19.554688 13.980469 19.5625 14.023438 19.570312 14.058594 C 19.585938 14.214844 19.570312 14.230469 19.4375 14.296875 C 19.128906 14.4375 18.820312 14.585938 18.503906 14.726562 C 18.480469 14.742188 18.46875 14.761719 18.410156 14.800781 Z M 18.410156 14.800781 " fill-opacity="1" fill-rule="nonzero"/></svg>