<svg xmlns="http://www.w3.org/2000/svg" xmlns:xlink="http://www.w3.org/1999/xlink" width="500" zoomAndPan="magnify" viewBox="0 0 375 74.999997" height="100" preserveAspectRatio="xMidYMid meet" version="1.0"><defs><clipPath id="c907fba2fa"><path d="M 181 18 L 321.453125 18 L 321.453125 48 L 181 48 Z M 181 18 " clip-rule="nonzero"/></clipPath><clipPath id="152807fc00"><path d="M 34.203125 16 L 293 16 L 293 68 L 34.203125 68 Z M 34.203125 16 " clip-rule="nonzero"/></clipPath></defs><path fill="#73d2f3" d="M 198.234375 68.210938 C 158.097656 76.863281 118.90625 16.140625 59.699219 45.378906 C 116.179688 27.183594 143.507812 84.171875 198.234375 68.210938 " fill-opacity="1" fill-rule="nonzero"/><path fill="#51ade5" d="M 215.464844 32.324219 C 175.332031 40.980469 136.140625 -19.746094 76.929688 9.492188 C 133.414062 -8.703125 160.738281 48.285156 215.464844 32.324219 " fill-opacity="1" fill-rule="nonzero"/><g clip-path="url(#c907fba2fa)"><path fill="#73d2f3" d="M 321.46875 22.1875 C 281.792969 11.609375 239.730469 70.375 181.996094 38.3125 C 237.539062 59.210938 267.570312 3.605469 321.46875 22.1875 " fill-opacity="1" fill-rule="nonzero"/></g><g clip-path="url(#152807fc00)"><path fill="#51ade5" d="M 292.5625 40.523438 C 216.90625 120.171875 138.371094 -9.75 34.210938 40.523438 C 130.792969 -38.078125 159.875 104.132812 292.5625 40.523438 " fill-opacity="1" fill-rule="nonzero"/></g></svg>