<svg xmlns="http://www.w3.org/2000/svg" xmlns:xlink="http://www.w3.org/1999/xlink" width="50" zoomAndPan="magnify" viewBox="0 0 37.5 37.499999" height="50" preserveAspectRatio="xMidYMid meet" version="1.0"><defs><clipPath id="6c9de59b33"><path d="M 1.09375 0 L 36.34375 0 L 36.34375 36 L 1.09375 36 Z M 1.09375 0 " clip-rule="nonzero"/></clipPath><clipPath id="78d5e4a558"><path d="M 8 25 L 30 25 L 30 37.007812 L 8 37.007812 Z M 8 25 " clip-rule="nonzero"/></clipPath></defs><g clip-path="url(#6c9de59b33)"><path fill="#f2546b" d="M 36.347656 17.765625 C 36.347656 27.566406 28.457031 35.511719 18.722656 35.511719 C 8.988281 35.511719 1.097656 27.566406 1.097656 17.765625 C 1.097656 7.964844 8.988281 0.0195312 18.722656 0.0195312 C 28.457031 0.0195312 36.347656 7.964844 36.347656 17.765625 " fill-opacity="1" fill-rule="nonzero"/></g><g clip-path="url(#78d5e4a558)"><path fill="#ffffff" d="M 29.007812 35.558594 C 28.136719 36.214844 27.199219 36.789062 26.210938 37.269531 C 26.058594 37.34375 25.910156 37.414062 25.757812 37.480469 C 23.609375 38.449219 21.230469 38.988281 18.722656 38.988281 C 16.21875 38.988281 13.839844 38.449219 11.691406 37.480469 C 11.539062 37.414062 11.386719 37.34375 11.238281 37.269531 C 10.25 36.789062 9.3125 36.214844 8.441406 35.558594 C 8.59375 32.128906 10.40625 29.132812 13.085938 27.363281 C 14.707031 26.292969 16.640625 25.671875 18.722656 25.671875 C 19.042969 25.671875 19.355469 25.6875 19.664062 25.714844 C 21.390625 25.871094 22.988281 26.457031 24.363281 27.363281 C 25.597656 28.175781 26.644531 29.253906 27.433594 30.507812 C 28.359375 31.984375 28.921875 33.707031 29.007812 35.558594 " fill-opacity="1" fill-rule="nonzero"/></g><path fill="#fbd5c0" d="M 24.363281 27.363281 C 24.207031 28.558594 23.679688 29.640625 22.90625 30.484375 C 21.867188 31.621094 20.378906 32.328125 18.722656 32.328125 C 16.074219 32.328125 13.847656 30.503906 13.214844 28.035156 C 13.160156 27.816406 13.117188 27.589844 13.085938 27.363281 C 14.707031 26.292969 16.640625 25.671875 18.722656 25.671875 C 19.042969 25.671875 19.355469 25.683594 19.664062 25.714844 C 19.71875 25.71875 19.773438 25.722656 19.824219 25.730469 C 19.859375 25.734375 19.894531 25.738281 19.925781 25.742188 C 19.964844 25.746094 20 25.75 20.035156 25.753906 C 20.058594 25.757812 20.082031 25.761719 20.105469 25.765625 C 20.136719 25.765625 20.171875 25.773438 20.203125 25.777344 C 20.230469 25.78125 20.257812 25.785156 20.28125 25.789062 C 20.304688 25.792969 20.328125 25.796875 20.351562 25.800781 C 20.386719 25.804688 20.425781 25.8125 20.464844 25.816406 C 20.628906 25.847656 20.789062 25.878906 20.949219 25.914062 L 21.058594 25.9375 C 21.078125 25.945312 21.101562 25.949219 21.121094 25.953125 C 21.15625 25.964844 21.199219 25.972656 21.234375 25.980469 C 21.242188 25.984375 21.246094 25.984375 21.25 25.984375 C 21.300781 25.996094 21.347656 26.011719 21.394531 26.023438 C 21.445312 26.035156 21.496094 26.050781 21.546875 26.066406 C 21.605469 26.082031 21.660156 26.097656 21.71875 26.117188 C 21.761719 26.128906 21.804688 26.144531 21.847656 26.15625 C 21.875 26.167969 21.90625 26.175781 21.933594 26.183594 C 21.980469 26.199219 22.023438 26.214844 22.070312 26.230469 C 22.125 26.25 22.179688 26.269531 22.234375 26.289062 C 22.238281 26.292969 22.242188 26.292969 22.246094 26.292969 C 22.304688 26.3125 22.359375 26.335938 22.417969 26.355469 C 22.457031 26.375 22.5 26.390625 22.542969 26.40625 C 22.652344 26.453125 22.761719 26.5 22.871094 26.546875 L 23.011719 26.609375 C 23.054688 26.628906 23.097656 26.648438 23.140625 26.671875 C 23.179688 26.691406 23.21875 26.707031 23.253906 26.726562 C 23.292969 26.742188 23.328125 26.761719 23.359375 26.78125 C 23.382812 26.792969 23.40625 26.800781 23.429688 26.816406 C 23.523438 26.863281 23.613281 26.910156 23.703125 26.960938 C 23.734375 26.980469 23.769531 27 23.800781 27.015625 C 23.824219 27.03125 23.84375 27.039062 23.863281 27.050781 L 23.9375 27.097656 L 24.015625 27.144531 L 24.066406 27.175781 C 24.117188 27.203125 24.164062 27.234375 24.210938 27.261719 C 24.261719 27.296875 24.3125 27.328125 24.363281 27.363281 " fill-opacity="1" fill-rule="nonzero"/><path fill="#fbd5c0" d="M 21.230469 22.828125 L 21.230469 27.792969 C 21.230469 29.046875 20.210938 30.078125 18.964844 30.078125 L 18.484375 30.078125 C 17.238281 30.078125 16.21875 29.046875 16.21875 27.792969 L 16.21875 22.828125 C 16.21875 21.574219 17.238281 20.546875 18.484375 20.546875 L 18.964844 20.546875 C 20.210938 20.546875 21.230469 21.574219 21.230469 22.828125 " fill-opacity="1" fill-rule="nonzero"/><path fill="#f8a29e" d="M 21.230469 22.828125 L 21.230469 25.457031 C 20.484375 25.875 19.695312 26.117188 18.890625 26.117188 C 17.945312 26.117188 17.042969 25.851562 16.21875 25.390625 L 16.21875 22.828125 C 16.21875 21.574219 17.238281 20.546875 18.484375 20.546875 L 18.964844 20.546875 C 20.210938 20.546875 21.230469 21.574219 21.230469 22.828125 " fill-opacity="1" fill-rule="nonzero"/><path fill="#fbd5c0" d="M 24.835938 20.914062 C 24.835938 20.914062 26.007812 20.511719 26.757812 19.195312 C 27.574219 17.765625 27.0625 16.875 26.898438 16.679688 C 26.457031 16.152344 25.777344 16.492188 25.664062 16.679688 C 25.554688 16.871094 23.929688 19.839844 24.835938 20.914062 " fill-opacity="1" fill-rule="nonzero"/><path fill="#f8a29e" d="M 25.984375 17.148438 C 25.984375 17.148438 26.730469 17.246094 26.46875 18.300781 C 26.207031 19.355469 25.519531 19.773438 24.582031 20.3125 C 23.648438 20.851562 25.050781 17.363281 25.984375 17.148438 " fill-opacity="1" fill-rule="nonzero"/><path fill="#fbd5c0" d="M 12.917969 20.914062 C 12.917969 20.914062 11.746094 20.511719 10.996094 19.195312 C 10.179688 17.765625 10.691406 16.875 10.851562 16.679688 C 11.292969 16.152344 11.976562 16.492188 12.085938 16.679688 C 12.199219 16.871094 13.824219 19.839844 12.917969 20.914062 " fill-opacity="1" fill-rule="nonzero"/><path fill="#f8a29e" d="M 11.765625 17.148438 C 11.765625 17.148438 11.023438 17.246094 11.285156 18.300781 C 11.546875 19.355469 12.234375 19.773438 13.171875 20.3125 C 14.105469 20.851562 12.703125 17.363281 11.765625 17.148438 " fill-opacity="1" fill-rule="nonzero"/><path fill="#fbd5c0" d="M 25.984375 16.453125 C 25.984375 12.121094 22.808594 8.609375 18.890625 8.609375 C 14.976562 8.609375 11.796875 12.121094 11.796875 16.453125 C 11.796875 20.785156 14.976562 25.3125 18.890625 25.3125 C 22.574219 25.3125 25.984375 20.75 25.984375 16.453125 " fill-opacity="1" fill-rule="nonzero"/><path fill="#23255d" d="M 19.53125 13.292969 C 19.53125 13.292969 20.867188 17.613281 25.882812 17.183594 C 25.882812 17.183594 26.761719 15.910156 26.464844 13.136719 C 26.128906 10.007812 23.378906 7.378906 18.890625 8.320312 C 18.890625 8.320312 18.484375 10.542969 19.53125 13.292969 " fill-opacity="1" fill-rule="nonzero"/><path fill="#23255d" d="M 19.753906 8.609375 C 19.753906 8.609375 19.941406 7.792969 19.269531 7.152344 C 18.59375 6.511719 9.679688 7.828125 11.796875 16.453125 C 11.796875 16.453125 13.878906 11.292969 19.378906 10.84375 L 19.753906 8.609375 " fill-opacity="1" fill-rule="nonzero"/></svg>